<svg width="209" height="90" viewBox="0 0 209 90" fill="none" xmlns="http://www.w3.org/2000/svg">
<mask id="mask0" mask-type="alpha" maskUnits="userSpaceOnUse" x="0" y="0" width="209" height="90">
<rect width="209" height="90" fill="#C4C4C4"/>
</mask>
<g mask="url(#mask0)">
<path d="M87.1427 66.4881C87.4919 66.4881 87.8412 66.3834 88.1555 66.3135V68.7582C87.5269 69.0027 86.7585 69.1424 85.9902 69.1424C84.5932 69.1424 83.4756 68.5836 82.9168 67.3612C81.4151 68.5836 79.5291 69.3519 77.1193 69.3519C74.3254 69.3519 71.741 67.8153 71.741 64.6371C71.741 60.6907 75.3731 59.5032 78.5862 59.5032C79.9133 59.5032 81.3801 59.6778 82.5676 59.9572V59.3985C82.5676 57.4776 81.1706 56.1505 78.5513 56.1505C76.2812 56.1505 74.3952 56.7093 73.0332 57.3379V54.1947C74.2555 53.7756 76.4558 53.1819 78.9005 53.1819C83.2311 53.1819 85.9902 55.2424 85.9902 59.8874V65.3705C86.0251 66.2087 86.514 66.4881 87.1427 66.4881ZM75.2683 64.3927C75.2683 65.8944 76.5955 66.6628 78.1322 66.6628C79.7736 66.6628 81.3452 66.069 82.5676 64.8467V62.2623C81.6246 62.0876 80.3324 61.8781 79.2497 61.8781C77.3289 61.8781 75.2683 62.4718 75.2683 64.3927Z" fill="black"/>
<path d="M98.0392 53.1469C99.7505 53.1469 101.427 53.531 102.754 54.3343V57.4775C101.636 56.6742 100.065 56.1853 98.4932 56.1853C95.7691 56.1853 93.045 57.6172 93.045 61.2493C93.045 64.7418 95.6993 66.3134 98.4583 66.3134C100.1 66.3134 101.706 65.8245 102.929 65.126V68.3041C101.462 69.0026 99.7855 69.3518 97.8646 69.3518C93.7784 69.3518 89.5875 66.8722 89.5875 61.389C89.5526 55.6265 93.9531 53.1469 98.0392 53.1469Z" fill="black"/>
<path d="M120.426 66.4881C120.775 66.4881 121.124 66.3834 121.439 66.3135V68.7582C120.81 69.0027 120.042 69.1424 119.273 69.1424C117.876 69.1424 116.759 68.5836 116.2 67.3612C114.698 68.5836 112.812 69.3519 110.402 69.3519C107.608 69.3519 105.024 67.8153 105.024 64.6371C105.024 60.6907 108.656 59.5032 111.869 59.5032C113.196 59.5032 114.663 59.6778 115.851 59.9572V59.3985C115.851 57.4776 114.454 56.1505 111.834 56.1505C109.564 56.1505 107.678 56.7093 106.316 57.3379V54.1947C107.539 53.7756 109.739 53.1819 112.184 53.1819C116.514 53.1819 119.273 55.2424 119.273 59.8874V65.3705C119.308 66.2087 119.832 66.4881 120.426 66.4881ZM108.586 64.3927C108.586 65.8944 109.913 66.6628 111.45 66.6628C113.092 66.6628 114.663 66.069 115.886 64.8467V62.2623C114.943 62.0876 113.65 61.8781 112.568 61.8781C110.612 61.8781 108.586 62.4718 108.586 64.3927Z" fill="black"/>
<path d="M139.425 46.5112V68.8979H136.352V66.4531C135.164 67.9549 133.348 69.282 130.484 69.282C125.839 69.282 122.871 65.615 122.871 61.1795C122.871 56.779 125.839 53.077 130.484 53.077C133.173 53.077 134.955 54.2645 136.002 55.4868V46.5112H139.425ZM131.078 56.1504C128.319 56.1504 126.328 58.2109 126.328 61.2494C126.328 64.2529 128.354 66.3134 131.078 66.3134C133.488 66.3134 135.234 64.7768 135.967 63.1004V59.3635C135.234 57.6871 133.488 56.1504 131.078 56.1504Z" fill="black"/>
<path d="M150.496 53.1469C156.608 53.1469 158.703 58.0712 157.725 62.5066H146.2C146.584 65.2657 149.273 66.4182 152.067 66.4182C153.918 66.4182 155.63 65.9642 156.922 65.3355V68.2692C155.525 68.9327 153.569 69.3169 151.439 69.3169C146.724 69.3169 142.742 66.6277 142.742 61.2144C142.742 55.6614 146.968 53.1469 150.496 53.1469ZM150.67 55.9757C148.365 55.9757 146.305 57.3378 146.165 59.9222H154.652C154.861 58.5951 154.023 55.9757 150.67 55.9757Z" fill="black"/>
<path d="M161.218 68.8978V53.5659H164.256V55.4868C165.094 54.5438 166.875 53.1469 169.355 53.1469C171.66 53.1469 173.267 54.0898 174.14 55.5916C175.467 54.2644 177.283 53.1469 179.518 53.1469C183.569 53.1469 185.351 56.1504 185.351 59.3285V68.9327H181.928V59.4333C181.928 57.4426 180.74 56.2202 178.889 56.2202C177.213 56.2202 175.886 57.3378 175.083 58.2808C175.118 58.63 175.153 58.9792 175.153 59.3285V68.9327H171.73V59.4333C171.73 57.4426 170.543 56.2202 168.692 56.2202C166.841 56.2202 165.444 57.5473 164.64 58.5951V68.9327H161.218V68.8978Z" fill="black"/>
<path d="M200.438 53.5659H204L196.806 70.9933C195.129 74.9747 192.964 76.3367 190.624 76.3367C189.961 76.3367 189.297 76.2319 188.598 76.0922V73.1935C189.122 73.3681 189.646 73.4031 190.17 73.4031C191.846 73.4031 193.069 72.2156 193.977 69.8408L194.291 69.0724L186.992 53.6008H190.624L195.793 65.1609L200.438 53.5659Z" fill="black"/>
<path d="M76.281 19.6543V28.3854C77.3986 27.2329 79.1448 26.29 81.2403 26.29C85.1169 26.29 87.5616 28.9093 87.5616 32.5415V42.0409H84.139V32.9955C84.139 30.5158 82.6023 29.3284 80.5767 29.3284C78.6209 29.3284 77.1541 30.6555 76.281 31.8779V42.0409H72.8584V19.6543H76.281Z" fill="black"/>
<path d="M96.9213 21.226V26.6742H102.474V29.6777H96.9213V36.6975C96.9213 38.7231 97.8642 39.3867 99.82 39.3867C100.938 39.3867 101.95 39.1772 102.928 38.793V41.7267C101.776 42.1458 100.309 42.3902 98.8072 42.3902C95.8386 42.3902 93.5336 40.9234 93.5336 37.3262V29.6428H90.7745V26.6393H93.5336V22.0641L96.9213 21.226Z" fill="black"/>
<path d="M106.875 42.0409V26.709H109.913V28.6299C110.752 27.6869 112.533 26.2899 115.012 26.2899C117.317 26.2899 118.924 27.2329 119.797 28.7346C121.124 27.4075 122.94 26.2899 125.175 26.2899C129.227 26.2899 131.008 29.2934 131.008 32.4716V42.0758H127.585V32.5414C127.585 30.5507 126.398 29.3284 124.547 29.3284C122.87 29.3284 121.543 30.4459 120.74 31.3889C120.775 31.7381 120.81 32.0874 120.81 32.4366V42.0409H117.387V32.5414C117.387 30.5507 116.2 29.3284 114.349 29.3284C112.498 29.3284 111.101 30.6555 110.298 31.7032V42.0409H106.875Z" fill="black"/>
<path d="M139.424 19.6543H136.002V42.0409H139.424V19.6543Z" fill="black"/>
<path d="M32.0665 17.0349L31.7871 17L5 19.794V68.8979L31.7871 84.8234L58.5742 68.8979V19.794L32.0665 17.0349ZM55.0818 66.9072L31.7871 80.7722L8.49245 66.9072V46.7906L31.6823 60.5858L31.7173 63.1004L15.8266 53.6358L15.7917 56.0806L31.7522 65.6848L31.7871 68.2343L15.8266 58.6999L15.7917 61.1446L31.7522 70.7489L47.8873 61.1097V58.665H47.8524V57.8268V56.814V50.7371L55.0469 46.4414V66.9072H55.0818ZM55.0469 43.822L48.6906 47.559L45.7569 49.3052L31.7173 40.9932L31.6823 43.4379L43.6615 50.5276L43.5567 50.5974L43.3122 50.7371L41.6009 51.7499L31.7173 45.8826L31.6823 48.3273L39.5054 52.9723L37.6544 54.1946L37.6195 54.2296L31.7173 50.7371L31.6823 53.1818L35.559 55.4519L31.6125 57.8268L8.5623 44.1014L31.6474 30.2015L55.0469 43.822ZM55.0818 41.4123L31.6823 27.6171L8.49245 41.3773V22.9721L31.7871 20.5274L55.0818 22.9721V41.4123Z" fill="black"/>
</g>
</svg>
